<svg width="89" height="69" viewBox="0 0 89 69" fill="none" xmlns="http://www.w3.org/2000/svg">
<path d="M75.3423 6.14456C69.6697 3.53962 63.5867 1.62042 57.2266 0.521213C57.1108 0.499998 56.9951 0.553014 56.9354 0.659048C56.1531 2.05161 55.2865 3.86831 54.6797 5.29624C47.839 4.27128 41.0334 4.27128 34.3329 5.29624C33.726 3.83658 32.828 2.05161 32.0421 0.659048C31.9825 0.556552 31.8668 0.503536 31.7509 0.521213C25.3943 1.61691 19.3114 3.53611 13.6353 6.14456C13.5862 6.16576 13.544 6.20114 13.5161 6.24706C1.97799 23.4988 -1.18277 40.3265 0.367793 56.9456C0.374809 57.0269 0.420413 57.1047 0.483559 57.1541C8.09607 62.7492 15.4701 66.1458 22.7072 68.3972C22.823 68.4326 22.9457 68.3902 23.0194 68.2948C24.7313 65.955 26.2574 63.488 27.5658 60.8936C27.643 60.7416 27.5693 60.5614 27.4115 60.5013C24.9909 59.5823 22.6861 58.4619 20.469 57.1895C20.2936 57.087 20.2796 56.836 20.4409 56.7158C20.9075 56.3659 21.3742 56.0018 21.8197 55.6343C21.9003 55.5671 22.0126 55.553 22.1073 55.5954C36.6728 62.2509 52.4416 62.2509 66.8351 55.5954C66.9299 55.5494 67.0422 55.5636 67.1263 55.6307C67.5719 55.9983 68.0385 56.3659 68.5086 56.7158C68.6699 56.836 68.6594 57.087 68.484 57.1895C66.2669 58.4866 63.962 59.5823 61.538 60.4978C61.3802 60.5578 61.31 60.7416 61.3872 60.8936C62.7237 63.4843 64.2497 65.9514 65.9301 68.2912C66.0003 68.3902 66.1265 68.4326 66.2423 68.3972C73.5145 66.1458 80.8885 62.7492 88.501 57.1541C88.5677 57.1047 88.6098 57.0304 88.6168 56.9491C90.4725 37.7357 85.5086 21.0459 75.458 6.25057C75.4334 6.20114 75.3914 6.16576 75.3423 6.14456ZM29.7409 46.8263C25.3557 46.8263 21.7424 42.7971 21.7424 37.8488C21.7424 32.9005 25.2857 28.8713 29.7409 28.8713C34.2312 28.8713 37.8095 32.9359 37.7393 37.8488C37.7393 42.7971 34.1961 46.8263 29.7409 46.8263ZM59.3139 46.8263C54.9288 46.8263 51.3155 42.7971 51.3155 37.8488C51.3155 32.9005 54.8586 28.8713 59.3139 28.8713C63.8042 28.8713 67.3824 32.9359 67.3123 37.8488C67.3123 42.7971 63.8042 46.8263 59.3139 46.8263Z" fill="#5865F2"/>
</svg>
