<svg width="500" height="35" viewBox="0 0 500 35" fill="none" xmlns="http://www.w3.org/2000/svg">
<path d="M0.52 0.939999H5.245V21.52H15.85V26H0.52V0.939999ZM34.8963 21.87C34.103 23.27 33.0296 24.4017 31.6763 25.265C30.3463 26.1283 28.713 26.56 26.7763 26.56C25.4696 26.56 24.2563 26.3383 23.1363 25.895C22.0396 25.4283 21.083 24.7867 20.2663 23.97C19.4496 23.1533 18.808 22.1967 18.3413 21.1C17.898 19.98 17.6763 18.755 17.6763 17.425C17.6763 16.1883 17.898 15.0217 18.3413 13.925C18.7846 12.805 19.403 11.8367 20.1963 11.02C20.9896 10.18 21.923 9.515 22.9963 9.025C24.093 8.535 25.2946 8.29 26.6013 8.29C27.978 8.29 29.203 8.52333 30.2763 8.99C31.3496 9.43333 32.248 10.0633 32.9713 10.88C33.6946 11.6733 34.243 12.6183 34.6163 13.715C34.9896 14.8117 35.1763 16.0017 35.1763 17.285C35.1763 17.4483 35.1763 17.5883 35.1763 17.705C35.153 17.845 35.1413 17.9733 35.1413 18.09C35.118 18.2067 35.1063 18.335 35.1063 18.475H22.1913C22.2846 19.175 22.4713 19.7817 22.7513 20.295C23.0546 20.785 23.4163 21.205 23.8363 21.555C24.2796 21.8817 24.758 22.1267 25.2713 22.29C25.7846 22.43 26.3096 22.5 26.8463 22.5C27.8963 22.5 28.7596 22.2667 29.4363 21.8C30.1363 21.31 30.6846 20.7033 31.0813 19.98L34.8963 21.87ZM30.7313 15.22C30.708 14.9167 30.603 14.5783 30.4163 14.205C30.253 13.8317 29.9963 13.4817 29.6463 13.155C29.3196 12.8283 28.8996 12.56 28.3863 12.35C27.8963 12.14 27.3013 12.035 26.6013 12.035C25.6213 12.035 24.758 12.315 24.0113 12.875C23.2646 13.435 22.7396 14.2167 22.4363 15.22H30.7313ZM48.8454 24.18H48.5654C48.0288 24.8333 47.3754 25.3933 46.6054 25.86C45.8588 26.3267 44.8904 26.56 43.7004 26.56C42.8138 26.56 41.9738 26.4083 41.1804 26.105C40.4104 25.825 39.7338 25.4283 39.1504 24.915C38.5671 24.4017 38.1121 23.7833 37.7854 23.06C37.4588 22.3367 37.2954 21.5433 37.2954 20.68C37.2954 19.7933 37.4704 19 37.8204 18.3C38.1704 17.5767 38.6604 16.9583 39.2904 16.445C39.9204 15.9317 40.6554 15.5467 41.4954 15.29C42.3588 15.01 43.2921 14.87 44.2954 14.87C45.4154 14.87 46.3371 14.9633 47.0604 15.15C47.7838 15.3133 48.3788 15.4883 48.8454 15.675V15.15C48.8454 14.24 48.4838 13.4933 47.7604 12.91C47.0371 12.3033 46.1388 12 45.0654 12C43.4788 12 42.1371 12.665 41.0404 13.995L37.7154 11.72C39.5354 9.43333 42.0204 8.29 45.1704 8.29C47.8304 8.29 49.8604 8.92 51.2604 10.18C52.6604 11.4167 53.3604 13.26 53.3604 15.71V26H48.8454V24.18ZM48.8454 19.035C48.3088 18.7783 47.7488 18.58 47.1654 18.44C46.6054 18.2767 45.9871 18.195 45.3104 18.195C44.2138 18.195 43.3621 18.44 42.7554 18.93C42.1721 19.3967 41.8804 19.98 41.8804 20.68C41.8804 21.38 42.1604 21.94 42.7204 22.36C43.3038 22.78 43.9688 22.99 44.7154 22.99C45.3221 22.99 45.8821 22.885 46.3954 22.675C46.9088 22.4417 47.3404 22.15 47.6904 21.8C48.0638 21.4267 48.3438 21.0067 48.5304 20.54C48.7404 20.05 48.8454 19.5483 48.8454 19.035ZM54.8441 8.85H60.0591L64.3291 19.77H64.5741L68.8791 8.85H74.0591L66.6741 26H62.1591L54.8441 8.85ZM91.8738 21.87C91.0805 23.27 90.0072 24.4017 88.6538 25.265C87.3238 26.1283 85.6905 26.56 83.7538 26.56C82.4472 26.56 81.2338 26.3383 80.1138 25.895C79.0172 25.4283 78.0605 24.7867 77.2438 23.97C76.4272 23.1533 75.7855 22.1967 75.3188 21.1C74.8755 19.98 74.6538 18.755 74.6538 17.425C74.6538 16.1883 74.8755 15.0217 75.3188 13.925C75.7622 12.805 76.3805 11.8367 77.1738 11.02C77.9672 10.18 78.9005 9.515 79.9738 9.025C81.0705 8.535 82.2722 8.29 83.5788 8.29C84.9555 8.29 86.1805 8.52333 87.2538 8.99C88.3272 9.43333 89.2255 10.0633 89.9488 10.88C90.6722 11.6733 91.2205 12.6183 91.5938 13.715C91.9672 14.8117 92.1538 16.0017 92.1538 17.285C92.1538 17.4483 92.1538 17.5883 92.1538 17.705C92.1305 17.845 92.1188 17.9733 92.1188 18.09C92.0955 18.2067 92.0838 18.335 92.0838 18.475H79.1688C79.2622 19.175 79.4488 19.7817 79.7288 20.295C80.0322 20.785 80.3938 21.205 80.8138 21.555C81.2572 21.8817 81.7355 22.1267 82.2488 22.29C82.7622 22.43 83.2872 22.5 83.8238 22.5C84.8738 22.5 85.7372 22.2667 86.4138 21.8C87.1138 21.31 87.6622 20.7033 88.0588 19.98L91.8738 21.87ZM87.7088 15.22C87.6855 14.9167 87.5805 14.5783 87.3938 14.205C87.2305 13.8317 86.9738 13.4817 86.6238 13.155C86.2972 12.8283 85.8772 12.56 85.3638 12.35C84.8738 12.14 84.2788 12.035 83.5788 12.035C82.5988 12.035 81.7355 12.315 80.9888 12.875C80.2422 13.435 79.7172 14.2167 79.4138 15.22H87.7088Z" fill="#FF7E36"/>
<path d="M101.977 14.345L93.5421 0.939999H99.1771L104.182 9.235H104.462L109.292 0.939999H114.997L106.702 14.345V26H101.977V14.345ZM122.001 8.29C123.331 8.29 124.544 8.52333 125.641 8.99C126.761 9.43333 127.718 10.0633 128.511 10.88C129.328 11.6733 129.958 12.63 130.401 13.75C130.868 14.87 131.101 16.095 131.101 17.425C131.101 18.755 130.868 19.98 130.401 21.1C129.958 22.22 129.328 23.1883 128.511 24.005C127.718 24.7983 126.761 25.4283 125.641 25.895C124.544 26.3383 123.331 26.56 122.001 26.56C120.671 26.56 119.446 26.3383 118.326 25.895C117.229 25.4283 116.273 24.7983 115.456 24.005C114.663 23.1883 114.033 22.22 113.566 21.1C113.123 19.98 112.901 18.755 112.901 17.425C112.901 16.095 113.123 14.87 113.566 13.75C114.033 12.63 114.663 11.6733 115.456 10.88C116.273 10.0633 117.229 9.43333 118.326 8.99C119.446 8.52333 120.671 8.29 122.001 8.29ZM122.001 22.325C122.584 22.325 123.144 22.22 123.681 22.01C124.241 21.7767 124.731 21.45 125.151 21.03C125.571 20.61 125.898 20.0967 126.131 19.49C126.388 18.8833 126.516 18.195 126.516 17.425C126.516 16.655 126.388 15.9667 126.131 15.36C125.898 14.7533 125.571 14.24 125.151 13.82C124.731 13.4 124.241 13.085 123.681 12.875C123.144 12.6417 122.584 12.525 122.001 12.525C121.394 12.525 120.823 12.6417 120.286 12.875C119.749 13.085 119.271 13.4 118.851 13.82C118.431 14.24 118.093 14.7533 117.836 15.36C117.603 15.9667 117.486 16.655 117.486 17.425C117.486 18.195 117.603 18.8833 117.836 19.49C118.093 20.0967 118.431 20.61 118.851 21.03C119.271 21.45 119.749 21.7767 120.286 22.01C120.823 22.22 121.394 22.325 122.001 22.325ZM145.741 23.76H145.461C144.924 24.6233 144.201 25.3117 143.291 25.825C142.381 26.315 141.343 26.56 140.176 26.56C138.006 26.56 136.384 25.895 135.311 24.565C134.261 23.235 133.736 21.4617 133.736 19.245V8.85H138.321V18.685C138.321 19.9217 138.589 20.8433 139.126 21.45C139.686 22.0333 140.491 22.325 141.541 22.325C142.171 22.325 142.719 22.1967 143.186 21.94C143.676 21.66 144.084 21.2983 144.411 20.855C144.761 20.3883 145.018 19.8517 145.181 19.245C145.368 18.615 145.461 17.95 145.461 17.25V8.85H150.046V26H145.741V23.76ZM153.974 8.85H158.279V11.23H158.559C158.769 10.81 159.049 10.425 159.399 10.075C159.749 9.725 160.134 9.42167 160.554 9.165C160.997 8.90833 161.464 8.71 161.954 8.57C162.467 8.43 162.969 8.36 163.459 8.36C164.065 8.36 164.579 8.41833 164.999 8.535C165.442 8.65167 165.815 8.80333 166.119 8.99L164.894 13.155C164.614 13.015 164.299 12.91 163.949 12.84C163.622 12.7467 163.214 12.7 162.724 12.7C162.094 12.7 161.522 12.8283 161.009 13.085C160.495 13.3183 160.052 13.6567 159.679 14.1C159.329 14.5433 159.049 15.0683 158.839 15.675C158.652 16.2583 158.559 16.9 158.559 17.6V26H153.974V8.85Z" fill="#45C3DF"/>
<path d="M168.787 0.939999H178.587C179.66 0.939999 180.663 1.115 181.597 1.465C182.53 1.79167 183.335 2.25833 184.012 2.865C184.712 3.44833 185.26 4.13667 185.657 4.93C186.053 5.72333 186.252 6.575 186.252 7.485C186.252 8.815 185.925 9.935 185.272 10.845C184.642 11.7317 183.848 12.4083 182.892 12.875V13.155C184.175 13.6217 185.202 14.3567 185.972 15.36C186.765 16.34 187.162 17.565 187.162 19.035C187.162 20.1083 186.94 21.0767 186.497 21.94C186.077 22.78 185.493 23.5033 184.747 24.11C184 24.7167 183.125 25.1833 182.122 25.51C181.142 25.8367 180.08 26 178.937 26H168.787V0.939999ZM178.237 11.16C179.333 11.16 180.173 10.8683 180.757 10.285C181.363 9.67833 181.667 8.96667 181.667 8.15C181.667 7.33333 181.375 6.63333 180.792 6.05C180.208 5.46667 179.403 5.175 178.377 5.175H173.512V11.16H178.237ZM178.762 21.66C179.952 21.66 180.862 21.3683 181.492 20.785C182.122 20.1783 182.437 19.4083 182.437 18.475C182.437 17.5417 182.11 16.7717 181.457 16.165C180.827 15.535 179.882 15.22 178.622 15.22H173.512V21.66H178.762ZM198.358 8.29C199.688 8.29 200.902 8.52333 201.998 8.99C203.118 9.43333 204.075 10.0633 204.868 10.88C205.685 11.6733 206.315 12.63 206.758 13.75C207.225 14.87 207.458 16.095 207.458 17.425C207.458 18.755 207.225 19.98 206.758 21.1C206.315 22.22 205.685 23.1883 204.868 24.005C204.075 24.7983 203.118 25.4283 201.998 25.895C200.902 26.3383 199.688 26.56 198.358 26.56C197.028 26.56 195.803 26.3383 194.683 25.895C193.587 25.4283 192.63 24.7983 191.813 24.005C191.02 23.1883 190.39 22.22 189.923 21.1C189.48 19.98 189.258 18.755 189.258 17.425C189.258 16.095 189.48 14.87 189.923 13.75C190.39 12.63 191.02 11.6733 191.813 10.88C192.63 10.0633 193.587 9.43333 194.683 8.99C195.803 8.52333 197.028 8.29 198.358 8.29ZM198.358 22.325C198.942 22.325 199.502 22.22 200.038 22.01C200.598 21.7767 201.088 21.45 201.508 21.03C201.928 20.61 202.255 20.0967 202.488 19.49C202.745 18.8833 202.873 18.195 202.873 17.425C202.873 16.655 202.745 15.9667 202.488 15.36C202.255 14.7533 201.928 14.24 201.508 13.82C201.088 13.4 200.598 13.085 200.038 12.875C199.502 12.6417 198.942 12.525 198.358 12.525C197.752 12.525 197.18 12.6417 196.643 12.875C196.107 13.085 195.628 13.4 195.208 13.82C194.788 14.24 194.45 14.7533 194.193 15.36C193.96 15.9667 193.843 16.655 193.843 17.425C193.843 18.195 193.96 18.8833 194.193 19.49C194.45 20.0967 194.788 20.61 195.208 21.03C195.628 21.45 196.107 21.7767 196.643 22.01C197.18 22.22 197.752 22.325 198.358 22.325ZM210.063 8.85H214.368V11.23H214.648C214.858 10.81 215.138 10.425 215.488 10.075C215.838 9.725 216.223 9.42167 216.643 9.165C217.086 8.90833 217.553 8.71 218.043 8.57C218.556 8.43 219.058 8.36 219.548 8.36C220.154 8.36 220.668 8.41833 221.088 8.535C221.531 8.65167 221.904 8.80333 222.208 8.99L220.983 13.155C220.703 13.015 220.388 12.91 220.038 12.84C219.711 12.7467 219.303 12.7 218.813 12.7C218.183 12.7 217.611 12.8283 217.098 13.085C216.584 13.3183 216.141 13.6567 215.768 14.1C215.418 14.5433 215.138 15.0683 214.928 15.675C214.741 16.2583 214.648 16.9 214.648 17.6V26H210.063V8.85ZM226.87 6.365C226.474 6.365 226.089 6.295 225.715 6.155C225.365 5.99167 225.05 5.78167 224.77 5.525C224.514 5.245 224.304 4.93 224.14 4.58C224 4.23 223.93 3.845 223.93 3.425C223.93 3.005 224 2.62 224.14 2.27C224.304 1.92 224.514 1.61667 224.77 1.36C225.05 1.08 225.365 0.869999 225.715 0.729998C226.089 0.566665 226.474 0.484999 226.87 0.484999C227.687 0.484999 228.387 0.776665 228.97 1.36C229.554 1.92 229.845 2.60833 229.845 3.425C229.845 4.24167 229.554 4.94167 228.97 5.525C228.387 6.085 227.687 6.365 226.87 6.365ZM224.595 26V8.85H229.18V26H224.595ZM237.678 11.09H237.958C238.495 10.2267 239.218 9.55 240.128 9.06C241.038 8.54667 242.076 8.29 243.243 8.29C244.316 8.29 245.261 8.465 246.078 8.815C246.895 9.165 247.56 9.66667 248.073 10.32C248.61 10.95 249.006 11.72 249.263 12.63C249.543 13.5167 249.683 14.5083 249.683 15.605V26H245.098V16.165C245.098 14.9283 244.818 14.0183 244.258 13.435C243.721 12.8283 242.928 12.525 241.878 12.525C241.248 12.525 240.688 12.665 240.198 12.945C239.731 13.2017 239.323 13.5633 238.973 14.03C238.646 14.4733 238.39 15.01 238.203 15.64C238.04 16.2467 237.958 16.9 237.958 17.6V26H233.373V8.85H237.678V11.09ZM261.21 34.12C259.997 34.12 258.912 33.9567 257.955 33.63C257.022 33.3267 256.205 32.9183 255.505 32.405C254.805 31.915 254.222 31.3667 253.755 30.76C253.288 30.1533 252.95 29.5467 252.74 28.94L257.115 27.19C257.442 28.1 257.978 28.8 258.725 29.29C259.472 29.8033 260.3 30.06 261.21 30.06C262.657 30.06 263.8 29.605 264.64 28.695C265.48 27.8083 265.9 26.56 265.9 24.95V23.76H265.62C265.083 24.5067 264.372 25.1017 263.485 25.545C262.622 25.965 261.595 26.175 260.405 26.175C259.378 26.175 258.375 25.965 257.395 25.545C256.438 25.125 255.587 24.53 254.84 23.76C254.093 22.9667 253.487 22.0217 253.02 20.925C252.553 19.8283 252.32 18.6033 252.32 17.25C252.32 15.8967 252.553 14.6717 253.02 13.575C253.487 12.455 254.093 11.51 254.84 10.74C255.587 9.94667 256.438 9.34 257.395 8.92C258.375 8.5 259.378 8.29 260.405 8.29C261.595 8.29 262.622 8.51167 263.485 8.955C264.372 9.375 265.083 9.95833 265.62 10.705H265.9V8.85H270.275V24.775C270.275 26.2217 270.053 27.5167 269.61 28.66C269.167 29.8267 268.548 30.8067 267.755 31.6C266.962 32.4167 266.005 33.035 264.885 33.455C263.788 33.8983 262.563 34.12 261.21 34.12ZM261.385 22.045C261.945 22.045 262.493 21.94 263.03 21.73C263.59 21.52 264.08 21.2167 264.5 20.82C264.92 20.4 265.258 19.8983 265.515 19.315C265.772 18.7083 265.9 18.02 265.9 17.25C265.9 16.48 265.772 15.7917 265.515 15.185C265.258 14.5783 264.92 14.0767 264.5 13.68C264.08 13.26 263.59 12.945 263.03 12.735C262.493 12.525 261.945 12.42 261.385 12.42C260.825 12.42 260.277 12.525 259.74 12.735C259.203 12.945 258.725 13.26 258.305 13.68C257.885 14.1 257.547 14.6133 257.29 15.22C257.033 15.8033 256.905 16.48 256.905 17.25C256.905 18.02 257.033 18.7083 257.29 19.315C257.547 19.8983 257.885 20.4 258.305 20.82C258.725 21.2167 259.203 21.52 259.74 21.73C260.277 21.94 260.825 22.045 261.385 22.045Z" fill="#0DBA63"/>
<path d="M274.744 0.939999H284.544C285.617 0.939999 286.62 1.115 287.554 1.465C288.487 1.79167 289.292 2.25833 289.969 2.865C290.669 3.44833 291.217 4.13667 291.614 4.93C292.01 5.72333 292.209 6.575 292.209 7.485C292.209 8.815 291.882 9.935 291.229 10.845C290.599 11.7317 289.805 12.4083 288.849 12.875V13.155C290.132 13.6217 291.159 14.3567 291.929 15.36C292.722 16.34 293.119 17.565 293.119 19.035C293.119 20.1083 292.897 21.0767 292.454 21.94C292.034 22.78 291.45 23.5033 290.704 24.11C289.957 24.7167 289.082 25.1833 288.079 25.51C287.099 25.8367 286.037 26 284.894 26H274.744V0.939999ZM284.194 11.16C285.29 11.16 286.13 10.8683 286.714 10.285C287.32 9.67833 287.624 8.96667 287.624 8.15C287.624 7.33333 287.332 6.63333 286.749 6.05C286.165 5.46667 285.36 5.175 284.334 5.175H279.469V11.16H284.194ZM284.719 21.66C285.909 21.66 286.819 21.3683 287.449 20.785C288.079 20.1783 288.394 19.4083 288.394 18.475C288.394 17.5417 288.067 16.7717 287.414 16.165C286.784 15.535 285.839 15.22 284.579 15.22H279.469V21.66H284.719ZM308.06 23.76H307.78C307.244 24.6233 306.52 25.3117 305.61 25.825C304.7 26.315 303.662 26.56 302.495 26.56C300.325 26.56 298.704 25.895 297.63 24.565C296.58 23.235 296.055 21.4617 296.055 19.245V8.85H300.64V18.685C300.64 19.9217 300.909 20.8433 301.445 21.45C302.005 22.0333 302.81 22.325 303.86 22.325C304.49 22.325 305.039 22.1967 305.505 21.94C305.995 21.66 306.404 21.2983 306.73 20.855C307.08 20.3883 307.337 19.8517 307.5 19.245C307.687 18.615 307.78 17.95 307.78 17.25V8.85H312.365V26H308.06V23.76ZM322.912 26.56C321.792 26.56 320.789 26.42 319.902 26.14C319.039 25.86 318.28 25.4983 317.627 25.055C316.997 24.5883 316.46 24.0633 316.017 23.48C315.574 22.8733 315.235 22.2667 315.002 21.66L319.097 19.91C319.494 20.7967 320.019 21.4617 320.672 21.905C321.349 22.325 322.095 22.535 322.912 22.535C323.752 22.535 324.417 22.3833 324.907 22.08C325.397 21.7767 325.642 21.415 325.642 20.995C325.642 20.5283 325.432 20.155 325.012 19.875C324.615 19.5717 323.915 19.3033 322.912 19.07L320.497 18.545C319.96 18.4283 319.4 18.2417 318.817 17.985C318.257 17.7283 317.744 17.4017 317.277 17.005C316.81 16.6083 316.425 16.13 316.122 15.57C315.819 15.01 315.667 14.3567 315.667 13.61C315.667 12.77 315.842 12.0233 316.192 11.37C316.565 10.7167 317.067 10.1683 317.697 9.725C318.327 9.25833 319.062 8.90833 319.902 8.675C320.765 8.41833 321.687 8.29 322.667 8.29C324.3 8.29 325.759 8.61667 327.042 9.27C328.325 9.9 329.27 10.915 329.877 12.315L325.922 13.925C325.595 13.2483 325.117 12.7583 324.487 12.455C323.857 12.1517 323.227 12 322.597 12C321.944 12 321.372 12.14 320.882 12.42C320.392 12.6767 320.147 13.015 320.147 13.435C320.147 13.8317 320.345 14.1467 320.742 14.38C321.162 14.6133 321.722 14.8233 322.422 15.01L325.047 15.64C326.797 16.06 328.092 16.7367 328.932 17.67C329.795 18.58 330.227 19.665 330.227 20.925C330.227 21.6717 330.052 22.3833 329.702 23.06C329.352 23.7367 328.85 24.3433 328.197 24.88C327.567 25.3933 326.797 25.8017 325.887 26.105C325 26.4083 324.009 26.56 322.912 26.56ZM335.425 6.365C335.028 6.365 334.643 6.295 334.27 6.155C333.92 5.99167 333.605 5.78167 333.325 5.525C333.068 5.245 332.858 4.93 332.695 4.58C332.555 4.23 332.485 3.845 332.485 3.425C332.485 3.005 332.555 2.62 332.695 2.27C332.858 1.92 333.068 1.61667 333.325 1.36C333.605 1.08 333.92 0.869999 334.27 0.729998C334.643 0.566665 335.028 0.484999 335.425 0.484999C336.242 0.484999 336.942 0.776665 337.525 1.36C338.108 1.92 338.4 2.60833 338.4 3.425C338.4 4.24167 338.108 4.94167 337.525 5.525C336.942 6.085 336.242 6.365 335.425 6.365ZM333.15 26V8.85H337.735V26H333.15ZM346.233 11.09H346.513C347.049 10.2267 347.773 9.55 348.683 9.06C349.593 8.54667 350.631 8.29 351.798 8.29C352.871 8.29 353.816 8.465 354.633 8.815C355.449 9.165 356.114 9.66667 356.628 10.32C357.164 10.95 357.561 11.72 357.818 12.63C358.098 13.5167 358.238 14.5083 358.238 15.605V26H353.653V16.165C353.653 14.9283 353.373 14.0183 352.813 13.435C352.276 12.8283 351.483 12.525 350.433 12.525C349.803 12.525 349.243 12.665 348.753 12.945C348.286 13.2017 347.878 13.5633 347.528 14.03C347.201 14.4733 346.944 15.01 346.758 15.64C346.594 16.2467 346.513 16.9 346.513 17.6V26H341.928V8.85H346.233V11.09ZM378.265 21.87C377.472 23.27 376.399 24.4017 375.045 25.265C373.715 26.1283 372.082 26.56 370.145 26.56C368.839 26.56 367.625 26.3383 366.505 25.895C365.409 25.4283 364.452 24.7867 363.635 23.97C362.819 23.1533 362.177 22.1967 361.71 21.1C361.267 19.98 361.045 18.755 361.045 17.425C361.045 16.1883 361.267 15.0217 361.71 13.925C362.154 12.805 362.772 11.8367 363.565 11.02C364.359 10.18 365.292 9.515 366.365 9.025C367.462 8.535 368.664 8.29 369.97 8.29C371.347 8.29 372.572 8.52333 373.645 8.99C374.719 9.43333 375.617 10.0633 376.34 10.88C377.064 11.6733 377.612 12.6183 377.985 13.715C378.359 14.8117 378.545 16.0017 378.545 17.285C378.545 17.4483 378.545 17.5883 378.545 17.705C378.522 17.845 378.51 17.9733 378.51 18.09C378.487 18.2067 378.475 18.335 378.475 18.475H365.56C365.654 19.175 365.84 19.7817 366.12 20.295C366.424 20.785 366.785 21.205 367.205 21.555C367.649 21.8817 368.127 22.1267 368.64 22.29C369.154 22.43 369.679 22.5 370.215 22.5C371.265 22.5 372.129 22.2667 372.805 21.8C373.505 21.31 374.054 20.7033 374.45 19.98L378.265 21.87ZM374.1 15.22C374.077 14.9167 373.972 14.5783 373.785 14.205C373.622 13.8317 373.365 13.4817 373.015 13.155C372.689 12.8283 372.269 12.56 371.755 12.35C371.265 12.14 370.67 12.035 369.97 12.035C368.99 12.035 368.127 12.315 367.38 12.875C366.634 13.435 366.109 14.2167 365.805 15.22H374.1ZM388.435 26.56C387.315 26.56 386.311 26.42 385.425 26.14C384.561 25.86 383.803 25.4983 383.15 25.055C382.52 24.5883 381.983 24.0633 381.54 23.48C381.096 22.8733 380.758 22.2667 380.525 21.66L384.62 19.91C385.016 20.7967 385.541 21.4617 386.195 21.905C386.871 22.325 387.618 22.535 388.435 22.535C389.275 22.535 389.94 22.3833 390.43 22.08C390.92 21.7767 391.165 21.415 391.165 20.995C391.165 20.5283 390.955 20.155 390.535 19.875C390.138 19.5717 389.438 19.3033 388.435 19.07L386.02 18.545C385.483 18.4283 384.923 18.2417 384.34 17.985C383.78 17.7283 383.266 17.4017 382.8 17.005C382.333 16.6083 381.948 16.13 381.645 15.57C381.341 15.01 381.19 14.3567 381.19 13.61C381.19 12.77 381.365 12.0233 381.715 11.37C382.088 10.7167 382.59 10.1683 383.22 9.725C383.85 9.25833 384.585 8.90833 385.425 8.675C386.288 8.41833 387.21 8.29 388.19 8.29C389.823 8.29 391.281 8.61667 392.565 9.27C393.848 9.9 394.793 10.915 395.4 12.315L391.445 13.925C391.118 13.2483 390.64 12.7583 390.01 12.455C389.38 12.1517 388.75 12 388.12 12C387.466 12 386.895 12.14 386.405 12.42C385.915 12.6767 385.67 13.015 385.67 13.435C385.67 13.8317 385.868 14.1467 386.265 14.38C386.685 14.6133 387.245 14.8233 387.945 15.01L390.57 15.64C392.32 16.06 393.615 16.7367 394.455 17.67C395.318 18.58 395.75 19.665 395.75 20.925C395.75 21.6717 395.575 22.3833 395.225 23.06C394.875 23.7367 394.373 24.3433 393.72 24.88C393.09 25.3933 392.32 25.8017 391.41 26.105C390.523 26.4083 389.531 26.56 388.435 26.56ZM405.354 26.56C404.234 26.56 403.23 26.42 402.344 26.14C401.48 25.86 400.722 25.4983 400.069 25.055C399.439 24.5883 398.902 24.0633 398.459 23.48C398.015 22.8733 397.677 22.2667 397.444 21.66L401.539 19.91C401.935 20.7967 402.46 21.4617 403.114 21.905C403.79 22.325 404.537 22.535 405.354 22.535C406.194 22.535 406.859 22.3833 407.349 22.08C407.839 21.7767 408.084 21.415 408.084 20.995C408.084 20.5283 407.874 20.155 407.454 19.875C407.057 19.5717 406.357 19.3033 405.354 19.07L402.939 18.545C402.402 18.4283 401.842 18.2417 401.259 17.985C400.699 17.7283 400.185 17.4017 399.719 17.005C399.252 16.6083 398.867 16.13 398.564 15.57C398.26 15.01 398.109 14.3567 398.109 13.61C398.109 12.77 398.284 12.0233 398.634 11.37C399.007 10.7167 399.509 10.1683 400.139 9.725C400.769 9.25833 401.504 8.90833 402.344 8.675C403.207 8.41833 404.129 8.29 405.109 8.29C406.742 8.29 408.2 8.61667 409.484 9.27C410.767 9.9 411.712 10.915 412.319 12.315L408.364 13.925C408.037 13.2483 407.559 12.7583 406.929 12.455C406.299 12.1517 405.669 12 405.039 12C404.385 12 403.814 12.14 403.324 12.42C402.834 12.6767 402.589 13.015 402.589 13.435C402.589 13.8317 402.787 14.1467 403.184 14.38C403.604 14.6133 404.164 14.8233 404.864 15.01L407.489 15.64C409.239 16.06 410.534 16.7367 411.374 17.67C412.237 18.58 412.669 19.665 412.669 20.925C412.669 21.6717 412.494 22.3833 412.144 23.06C411.794 23.7367 411.292 24.3433 410.639 24.88C410.009 25.3933 409.239 25.8017 408.329 26.105C407.442 26.4083 406.45 26.56 405.354 26.56Z" fill="#FFC700"/>
<path d="M421.362 26V5.42H414.362V0.939999H433.087V5.42H426.087V26H421.362ZM441.205 8.29C442.535 8.29 443.748 8.52333 444.845 8.99C445.965 9.43333 446.922 10.0633 447.715 10.88C448.532 11.6733 449.162 12.63 449.605 13.75C450.072 14.87 450.305 16.095 450.305 17.425C450.305 18.755 450.072 19.98 449.605 21.1C449.162 22.22 448.532 23.1883 447.715 24.005C446.922 24.7983 445.965 25.4283 444.845 25.895C443.748 26.3383 442.535 26.56 441.205 26.56C439.875 26.56 438.65 26.3383 437.53 25.895C436.433 25.4283 435.477 24.7983 434.66 24.005C433.867 23.1883 433.237 22.22 432.77 21.1C432.327 19.98 432.105 18.755 432.105 17.425C432.105 16.095 432.327 14.87 432.77 13.75C433.237 12.63 433.867 11.6733 434.66 10.88C435.477 10.0633 436.433 9.43333 437.53 8.99C438.65 8.52333 439.875 8.29 441.205 8.29ZM441.205 22.325C441.788 22.325 442.348 22.22 442.885 22.01C443.445 21.7767 443.935 21.45 444.355 21.03C444.775 20.61 445.102 20.0967 445.335 19.49C445.592 18.8833 445.72 18.195 445.72 17.425C445.72 16.655 445.592 15.9667 445.335 15.36C445.102 14.7533 444.775 14.24 444.355 13.82C443.935 13.4 443.445 13.085 442.885 12.875C442.348 12.6417 441.788 12.525 441.205 12.525C440.598 12.525 440.027 12.6417 439.49 12.875C438.953 13.085 438.475 13.4 438.055 13.82C437.635 14.24 437.297 14.7533 437.04 15.36C436.807 15.9667 436.69 16.655 436.69 17.425C436.69 18.195 436.807 18.8833 437.04 19.49C437.297 20.0967 437.635 20.61 438.055 21.03C438.475 21.45 438.953 21.7767 439.49 22.01C440.027 22.22 440.598 22.325 441.205 22.325Z" fill="#FF7979"/>
<path d="M456.016 26.21C455.176 26.21 454.453 25.9183 453.846 25.335C453.263 24.7283 452.971 24.005 452.971 23.165C452.971 22.325 453.263 21.6133 453.846 21.03C454.453 20.4467 455.176 20.155 456.016 20.155C456.856 20.155 457.568 20.4467 458.151 21.03C458.734 21.6133 459.026 22.325 459.026 23.165C459.026 24.005 458.734 24.7283 458.151 25.335C457.568 25.9183 456.856 26.21 456.016 26.21ZM472.039 26.56C470.569 26.56 469.227 26.3267 468.014 25.86C466.824 25.37 465.809 24.67 464.969 23.76C464.129 22.85 463.475 21.7533 463.009 20.47C462.542 19.1633 462.309 17.6817 462.309 16.025V0.939999H467.034V16.305C467.034 17.145 467.139 17.915 467.349 18.615C467.559 19.315 467.874 19.9217 468.294 20.435C468.714 20.9483 469.239 21.3567 469.869 21.66C470.499 21.94 471.222 22.08 472.039 22.08C472.879 22.08 473.614 21.94 474.244 21.66C474.874 21.3567 475.399 20.9483 475.819 20.435C476.239 19.9217 476.554 19.315 476.764 18.615C476.974 17.915 477.079 17.145 477.079 16.305V0.939999H481.804V16.025C481.804 17.5883 481.57 19.0233 481.104 20.33C480.66 21.6133 480.007 22.7217 479.144 23.655C478.304 24.565 477.277 25.2767 476.064 25.79C474.874 26.3033 473.532 26.56 472.039 26.56ZM492.512 26.56C491.392 26.56 490.388 26.42 489.502 26.14C488.638 25.86 487.88 25.4983 487.227 25.055C486.597 24.5883 486.06 24.0633 485.617 23.48C485.173 22.8733 484.835 22.2667 484.602 21.66L488.697 19.91C489.093 20.7967 489.618 21.4617 490.272 21.905C490.948 22.325 491.695 22.535 492.512 22.535C493.352 22.535 494.017 22.3833 494.507 22.08C494.997 21.7767 495.242 21.415 495.242 20.995C495.242 20.5283 495.032 20.155 494.612 19.875C494.215 19.5717 493.515 19.3033 492.512 19.07L490.097 18.545C489.56 18.4283 489 18.2417 488.417 17.985C487.857 17.7283 487.343 17.4017 486.877 17.005C486.41 16.6083 486.025 16.13 485.722 15.57C485.418 15.01 485.267 14.3567 485.267 13.61C485.267 12.77 485.442 12.0233 485.792 11.37C486.165 10.7167 486.667 10.1683 487.297 9.725C487.927 9.25833 488.662 8.90833 489.502 8.675C490.365 8.41833 491.287 8.29 492.267 8.29C493.9 8.29 495.358 8.61667 496.642 9.27C497.925 9.9 498.87 10.915 499.477 12.315L495.522 13.925C495.195 13.2483 494.717 12.7583 494.087 12.455C493.457 12.1517 492.827 12 492.197 12C491.543 12 490.972 12.14 490.482 12.42C489.992 12.6767 489.747 13.015 489.747 13.435C489.747 13.8317 489.945 14.1467 490.342 14.38C490.762 14.6133 491.322 14.8233 492.022 15.01L494.647 15.64C496.397 16.06 497.692 16.7367 498.532 17.67C499.395 18.58 499.827 19.665 499.827 20.925C499.827 21.6717 499.652 22.3833 499.302 23.06C498.952 23.7367 498.45 24.3433 497.797 24.88C497.167 25.3933 496.397 25.8017 495.487 26.105C494.6 26.4083 493.608 26.56 492.512 26.56Z" fill="#081946"/>
</svg>
