<svg width="56" height="56" viewBox="0 0 56 56" fill="none" xmlns="http://www.w3.org/2000/svg">
<circle cx="28" cy="28" r="28" fill="url(#paint0_linear)"/>
<path fill-rule="evenodd" clip-rule="evenodd" d="M33.4482 29.3183C35.0466 30.4033 36.1666 31.8733 36.1666 33.8333V37.3333H39.6666C40.3082 37.3333 40.8332 36.8083 40.8332 36.1667V33.8333C40.8332 31.29 36.6682 29.785 33.4482 29.3183Z" fill="white"/>
<path d="M24.4997 28C27.077 28 29.1663 25.9107 29.1663 23.3333C29.1663 20.756 27.077 18.6667 24.4997 18.6667C21.9223 18.6667 19.833 20.756 19.833 23.3333C19.833 25.9107 21.9223 28 24.4997 28Z" fill="white"/>
<path fill-rule="evenodd" clip-rule="evenodd" d="M31.4999 28C34.0782 28 36.1666 25.9117 36.1666 23.3333C36.1666 20.755 34.0782 18.6667 31.4999 18.6667C30.9516 18.6667 30.4382 18.7833 29.9482 18.9467C30.9166 20.1483 31.4999 21.6767 31.4999 23.3333C31.4999 24.99 30.9166 26.5183 29.9482 27.72C30.4382 27.8833 30.9516 28 31.4999 28Z" fill="white"/>
<path fill-rule="evenodd" clip-rule="evenodd" d="M24.4998 29.1667C21.3848 29.1667 15.1665 30.73 15.1665 33.8333V36.1667C15.1665 36.8083 15.6915 37.3333 16.3332 37.3333H32.6665C33.3082 37.3333 33.8332 36.8083 33.8332 36.1667V33.8333C33.8332 30.73 27.6148 29.1667 24.4998 29.1667Z" fill="white"/>
<defs>
<linearGradient id="paint0_linear" x1="0" y1="0" x2="56" y2="56" gradientUnits="userSpaceOnUse">
<stop stop-color="#868CFF"/>
<stop offset="1" stop-color="#4318FF"/>
</linearGradient>
</defs>
</svg>
