<svg width="80" height="49" viewBox="0 0 80 49" fill="none" xmlns="http://www.w3.org/2000/svg">
<rect x="73.3081" y="48.2081" width="47.9195" height="6.67123" rx="3.33561" transform="rotate(-90 73.3081 48.2081)" fill="#E9EDF7"/>
<rect x="73.3081" y="48.2081" width="11.4269" height="6.6712" rx="3.3356" transform="rotate(-90 73.3081 48.2081)" fill="#4318FF"/>
<rect x="55.146" y="48.2081" width="47.9195" height="6.67117" rx="3.33558" transform="rotate(-90 55.146 48.2081)" fill="#E9EDF7"/>
<rect x="55.146" y="48.2081" width="43.4961" height="6.67123" rx="3.33561" transform="rotate(-90 55.146 48.2081)" fill="#4318FF"/>
<rect x="36.9844" y="48.2081" width="47.9195" height="6.67123" rx="3.33561" transform="rotate(-90 36.9844 48.2081)" fill="#E9EDF7"/>
<rect x="36.9844" y="48.2081" width="33.175" height="6.67123" rx="3.33561" transform="rotate(-90 36.9844 48.2081)" fill="#4318FF"/>
<rect x="18.8228" y="48.2081" width="47.9195" height="6.67121" rx="3.33561" transform="rotate(-90 18.8228 48.2081)" fill="#E9EDF7"/>
<rect x="18.8228" y="48.2081" width="24.6969" height="6.67122" rx="3.33561" transform="rotate(-90 18.8228 48.2081)" fill="#4318FF"/>
<rect x="0.660156" y="48.2081" width="47.9195" height="6.67123" rx="3.33561" transform="rotate(-90 0.660156 48.2081)" fill="#E9EDF7"/>
<rect x="0.660156" y="48.2081" width="39.4414" height="6.67124" rx="3.33562" transform="rotate(-90 0.660156 48.2081)" fill="#4318FF"/>
</svg>
