<svg width="76" height="76" viewBox="0 0 76 76" fill="none" xmlns="http://www.w3.org/2000/svg">
<path d="M13.64 2.53433C11.1721 3.49409 9.08496 4.77378 6.99785 6.86089C4.91074 8.93276 3.63105 11.0351 2.67129 13.4878C1.74199 15.8644 1.11738 18.5914 0.93457 22.5828C0.751758 26.5742 0.706055 27.8539 0.706055 38.0304C0.706055 48.207 0.751758 49.4867 0.93457 53.4781C1.11738 57.4695 1.75723 60.1964 2.67129 62.573C3.63105 65.041 4.91074 67.1281 6.99785 69.2152C9.08496 71.3023 11.1721 72.582 13.64 73.5417C16.0166 74.471 18.7436 75.0957 22.735 75.2785C26.7264 75.4613 28.0061 75.507 38.1826 75.507C48.3592 75.507 49.6389 75.4613 53.6303 75.2785C57.6217 75.0957 60.3486 74.4558 62.7252 73.5417C65.1932 72.582 67.2803 71.3023 69.3674 69.2152C71.4545 67.1281 72.7342 65.041 73.6939 62.573C74.6232 60.1964 75.2478 57.4695 75.4307 53.4781C75.6135 49.4867 75.6592 48.207 75.6592 38.0304C75.6592 27.8539 75.6135 26.5742 75.4307 22.5828C75.2478 18.5914 74.608 15.8644 73.6939 13.4878C72.7342 11.0351 71.4545 8.93276 69.3826 6.86089C67.2955 4.77378 65.2084 3.49409 62.7404 2.53433C60.3639 1.60503 57.6369 0.98042 53.6455 0.797607C49.6541 0.614795 48.3744 0.569092 38.1978 0.569092C28.0213 0.569092 26.7416 0.614795 22.7502 0.797607C18.7436 0.965186 16.0166 1.60503 13.64 2.53433ZM53.3256 7.5312C56.9818 7.69878 58.9623 8.30815 60.2877 8.82612C62.0396 9.51167 63.2889 10.3191 64.599 11.6292C65.9092 12.9394 66.7166 14.1886 67.4021 15.9406C67.9201 17.266 68.5295 19.2464 68.6971 22.9027C68.8799 26.8484 68.9103 28.0367 68.9103 38.0457C68.9103 48.0546 68.8646 49.2429 68.6971 53.1886C68.5295 56.8449 67.9201 58.8253 67.4021 60.1507C66.7166 61.9027 65.9092 63.1519 64.599 64.4621C63.2889 65.7722 62.0396 66.5796 60.2877 67.2652C58.9623 67.7832 56.9818 68.3925 53.3256 68.5601C49.3799 68.7429 48.1916 68.7734 38.1826 68.7734C28.1736 68.7734 26.9853 68.7277 23.0396 68.5601C19.3834 68.3925 17.4029 67.7832 16.0775 67.2652C14.3256 66.5796 13.0764 65.7722 11.7662 64.4621C10.4561 63.1519 9.64863 61.9027 8.96309 60.1507C8.44512 58.8253 7.83574 56.8449 7.66816 53.1886C7.48535 49.2429 7.45488 48.0546 7.45488 38.0457C7.45488 28.0367 7.50059 26.8484 7.66816 22.9027C7.83574 19.2464 8.44512 17.266 8.96309 15.9406C9.64863 14.1886 10.4561 12.9394 11.7662 11.6292C13.0764 10.3191 14.3256 9.51167 16.0775 8.82612C17.4029 8.30815 19.3834 7.69878 23.0396 7.5312C26.9853 7.34839 28.1736 7.31792 38.1826 7.31792C48.1916 7.31792 49.3799 7.34839 53.3256 7.5312Z" fill="url(#paint0_radial)"/>
<path d="M18.9419 38.0456C18.9419 48.6792 27.5646 57.2866 38.1829 57.2866C48.8013 57.2866 57.4239 48.664 57.4239 38.0456C57.4239 27.4272 48.8165 18.8046 38.1829 18.8046C27.5493 18.8046 18.9419 27.412 18.9419 38.0456ZM50.6751 38.0456C50.6751 44.9468 45.0841 50.5378 38.1829 50.5378C31.2817 50.5378 25.6907 44.9468 25.6907 38.0456C25.6907 31.1444 31.2817 25.5534 38.1829 25.5534C45.0841 25.5534 50.6751 31.1444 50.6751 38.0456Z" fill="url(#paint1_radial)"/>
<path d="M58.2007 22.5371C60.6827 22.5371 62.6948 20.525 62.6948 18.043C62.6948 15.5609 60.6827 13.5488 58.2007 13.5488C55.7186 13.5488 53.7065 15.5609 53.7065 18.043C53.7065 20.525 55.7186 22.5371 58.2007 22.5371Z" fill="#654C9F"/>
<defs>
<radialGradient id="paint0_radial" cx="0" cy="0" r="1" gradientUnits="userSpaceOnUse" gradientTransform="translate(2.06983 68.6461) rotate(-3.00009) scale(108.364 92.1085)">
<stop stop-color="#FED576"/>
<stop offset="0.2634" stop-color="#F47133"/>
<stop offset="0.6091" stop-color="#BC3081"/>
<stop offset="1" stop-color="#4C63D2"/>
</radialGradient>
<radialGradient id="paint1_radial" cx="0" cy="0" r="1" gradientUnits="userSpaceOnUse" gradientTransform="translate(19.6398 53.7579) rotate(-3.00009) scale(55.6465 47.299)">
<stop stop-color="#FED576"/>
<stop offset="0.2634" stop-color="#F47133"/>
<stop offset="0.6091" stop-color="#BC3081"/>
<stop offset="1" stop-color="#4C63D2"/>
</radialGradient>
</defs>
</svg>
