<svg width="77" height="78" viewBox="0 0 77 78" fill="none" xmlns="http://www.w3.org/2000/svg">
<g clip-path="url(#clip0)">
<path d="M23.5845 70.1835C52.3934 70.1835 68.1508 45.8226 68.1508 24.6979C68.1508 24.0062 68.1508 23.317 68.105 22.6313C71.1707 20.3682 73.8164 17.5666 75.9193 14.3563C73.0606 15.6489 70.0281 16.4974 66.9225 16.8714C70.1926 14.8732 72.6399 11.7313 73.8088 8.0293C70.7338 9.89157 67.3704 11.2041 63.8628 11.9097C57.9309 5.47183 48.0087 5.16102 41.701 11.2153C37.6327 15.1199 35.9073 20.9379 37.1695 26.49C24.577 25.845 12.8429 19.7743 4.88948 9.78681C0.732118 17.0913 2.85534 26.4364 9.73904 31.1271C7.24598 31.0518 4.80805 30.3652 2.6297 29.1263C2.6297 29.1921 2.6297 29.2605 2.6297 29.3289C2.63139 36.939 7.88727 43.4928 15.196 45.0001C12.8904 45.6417 10.4702 45.736 8.12309 45.2746C10.175 51.7869 16.0552 56.2482 22.7566 56.3763C17.2097 60.8255 10.3583 63.2401 3.30407 63.2332C2.05796 63.2306 0.813552 63.1535 -0.424072 63.002C6.73871 67.6936 15.0738 70.1818 23.5845 70.1705" fill="#1DA1F2"/>
</g>
<defs>
<clipPath id="clip0">
<rect width="76.3224" height="77.8967" fill="white"/>
</clipPath>
</defs>
</svg>
