<svg width="46" height="46" viewBox="0 0 46 46" fill="none" xmlns="http://www.w3.org/2000/svg">
<path fill-rule="evenodd" clip-rule="evenodd" d="M40.25 11.5H5.75V17.25C7.47405 17.25 8.33608 17.25 8.90203 17.7463C8.96766 17.8039 9.02945 17.8657 9.08701 17.9313C9.58333 18.4973 9.58333 19.3593 9.58333 21.0833V34.25C9.58333 37.0784 9.58333 38.4926 10.462 39.3713C11.3407 40.25 12.7549 40.25 15.5833 40.25H30.4167C33.2451 40.25 34.6593 40.25 35.538 39.3713C36.4167 38.4926 36.4167 37.0784 36.4167 34.25V21.0833C36.4167 19.3593 36.4167 18.4973 36.913 17.9313C36.9705 17.8657 37.0323 17.8039 37.098 17.7463C37.6639 17.25 38.5259 17.25 40.25 17.25V11.5ZM20.2083 21.0833C20.2083 19.9788 19.3129 19.0833 18.2083 19.0833C17.1038 19.0833 16.2083 19.9788 16.2083 21.0833V30.6667C16.2083 31.7712 17.1038 32.6667 18.2083 32.6667C19.3129 32.6667 20.2083 31.7712 20.2083 30.6667V21.0833ZM29.7917 21.0833C29.7917 19.9788 28.8962 19.0833 27.7917 19.0833C26.6871 19.0833 25.7917 19.9788 25.7917 21.0833V30.6667C25.7917 31.7712 26.6871 32.6667 27.7917 32.6667C28.8962 32.6667 29.7917 31.7712 29.7917 30.6667V21.0833Z" fill="#EF6E64"/>
<path d="M19.2973 6.4603C19.5157 6.25653 19.997 6.07646 20.6665 5.94804C21.3359 5.81961 22.1562 5.75 23 5.75C23.8439 5.75 24.6642 5.81961 25.3336 5.94804C26.0031 6.07646 26.4844 6.25652 26.7028 6.4603" stroke="#EF6E64" stroke-width="4" stroke-linecap="round"/>
</svg>
