<svg width="36" height="36" viewBox="0 0 36 36" fill="none" xmlns="http://www.w3.org/2000/svg">
<path d="M2 10C2 6.22876 2 4.34315 3.17157 3.17157C4.34315 2 6.22876 2 10 2H25.5C29.2712 2 31.1569 2 32.3284 3.17157C33.5 4.34315 33.5 6.22876 33.5 10V25.5C33.5 29.2712 33.5 31.1569 32.3284 32.3284C31.1569 33.5 29.2712 33.5 25.5 33.5H10C6.22876 33.5 4.34315 33.5 3.17157 32.3284C2 31.1569 2 29.2712 2 25.5V10Z" stroke="#1B2559" stroke-width="4"/>
<path fill-rule="evenodd" clip-rule="evenodd" d="M3 22.2498L3.58211 22.8319L9.02943 17.3846C9.99907 16.4149 10.6481 15.7696 11.1782 15.376C11.6918 14.9946 11.8993 14.9987 12.0145 15.0209C12.1297 15.0431 12.3239 15.1163 12.6591 15.6612C13.0051 16.2236 13.368 17.0637 13.9082 18.3241L15.6672 22.4285L15.694 22.491C15.9343 23.052 16.1568 23.5714 16.3929 23.9551C16.6485 24.3705 17.0428 24.8339 17.7091 24.9622C18.3754 25.0905 18.9136 24.8068 19.3052 24.516C19.6669 24.2474 20.0664 23.8478 20.4979 23.4161L20.5459 23.3681L22.6287 21.2853C23.3153 20.5987 23.7607 20.1563 24.1317 19.8732C24.4796 19.6078 24.6423 19.5782 24.75 19.5782C24.8577 19.5782 25.0204 19.6078 25.3683 19.8732C25.7393 20.1563 26.1847 20.5987 26.8713 21.2853L31.0429 25.4569L32.4571 24.0427L28.2855 19.8711L28.239 19.8246L28.239 19.8245C27.6122 19.1977 27.0721 18.6576 26.5815 18.2832C26.0556 17.882 25.4708 17.5782 24.75 17.5782C24.0292 17.5782 23.4444 17.882 22.9185 18.2832C22.4279 18.6576 21.8878 19.1977 21.261 19.8246L21.2145 19.8711L19.1317 21.9539C18.6353 22.4503 18.3412 22.7407 18.1128 22.9103L18.1028 22.9176L18.0963 22.9071C17.9473 22.6648 17.782 22.286 17.5055 21.6407L15.7465 17.5363L15.715 17.4629C15.2147 16.2953 14.7952 15.3165 14.3625 14.6132C13.91 13.8777 13.3195 13.2355 12.3927 13.057C11.4659 12.8785 10.6791 13.2554 9.98581 13.7703C9.32283 14.2626 8.56986 15.0156 7.67166 15.9139L7.61522 15.9704L3 20.5856V22.2498ZM17.9661 23.0028C17.9661 23.0027 17.9676 23.0021 17.9705 23.0011C17.9675 23.0025 17.966 23.0029 17.9661 23.0028ZM18.1947 23.0443C18.197 23.0463 18.1982 23.0474 18.1982 23.0475C18.1982 23.0476 18.197 23.0467 18.1947 23.0443Z" fill="#1B2559"/>
<path d="M3.58211 22.8319L3.22855 23.1855L3.58211 23.539L3.93566 23.1855L3.58211 22.8319ZM3 22.2498H2.5V22.4569L2.64645 22.6034L3 22.2498ZM9.02943 17.3846L9.38298 17.7381L9.02943 17.3846ZM11.1782 15.376L10.8801 14.9746L11.1782 15.376ZM12.0145 15.0209L12.109 14.5299L12.0145 15.0209ZM12.6591 15.6612L12.2332 15.9232L12.6591 15.6612ZM13.9082 18.3241L14.3678 18.1272V18.1272L13.9082 18.3241ZM15.6672 22.4285L16.1268 22.2316L16.1268 22.2315L15.6672 22.4285ZM15.694 22.491L16.1536 22.2941L16.1536 22.2941L15.694 22.491ZM16.3929 23.9551L15.967 24.2171L15.967 24.2171L16.3929 23.9551ZM17.7091 24.9622L17.6145 25.4532H17.6145L17.7091 24.9622ZM19.3052 24.516L19.6033 24.9174L19.6033 24.9174L19.3052 24.516ZM20.4979 23.4161L20.1443 23.0626L20.1443 23.0626L20.4979 23.4161ZM20.5459 23.3681L20.1924 23.0145L20.1924 23.0145L20.5459 23.3681ZM22.6287 21.2853L22.9822 21.6389V21.6389L22.6287 21.2853ZM24.1317 19.8732L23.8284 19.4757L24.1317 19.8732ZM25.3683 19.8732L25.065 20.2708L25.065 20.2708L25.3683 19.8732ZM26.8713 21.2853L27.2249 20.9318L26.8713 21.2853ZM31.0429 25.4569L30.6893 25.8105L31.0429 26.164L31.3964 25.8105L31.0429 25.4569ZM32.4571 24.0427L32.8107 24.3962L33.1642 24.0427L32.8107 23.6891L32.4571 24.0427ZM28.2855 19.8711L27.932 20.2247L27.932 20.2247L28.2855 19.8711ZM28.239 19.8246L27.8818 20.1745L27.8854 20.1781L28.239 19.8246ZM28.239 19.8245L28.5962 19.4746L28.5925 19.471L28.239 19.8245ZM26.5815 18.2832L26.8847 17.8857L26.5815 18.2832ZM22.9185 18.2832L22.6153 17.8857L22.9185 18.2832ZM21.261 19.8246L21.6146 20.1781L21.6146 20.1781L21.261 19.8246ZM21.2145 19.8711L21.568 20.2247L21.568 20.2247L21.2145 19.8711ZM19.1317 21.9539L18.7782 21.6003V21.6003L19.1317 21.9539ZM18.1128 22.9103L18.4096 23.3127L18.4109 23.3117L18.1128 22.9103ZM18.1028 22.9176L17.6778 23.181L17.9634 23.6417L18.3996 23.32L18.1028 22.9176ZM18.0963 22.9071L17.6705 23.1691L17.6713 23.1705L18.0963 22.9071ZM17.5055 21.6407L17.9651 21.4437L17.5055 21.6407ZM15.7465 17.5363L15.2869 17.7333L15.2869 17.7333L15.7465 17.5363ZM15.715 17.4629L15.2555 17.6599L15.2555 17.6599L15.715 17.4629ZM14.3625 14.6132L14.7884 14.3512V14.3512L14.3625 14.6132ZM12.3927 13.057L12.4873 12.566L12.3927 13.057ZM9.98581 13.7703L10.2839 14.1717L9.98581 13.7703ZM7.67166 15.9139L8.02522 16.2675L8.02522 16.2675L7.67166 15.9139ZM7.61522 15.9704L7.96877 16.3239L7.96878 16.3239L7.61522 15.9704ZM3 20.5856L2.64645 20.232L2.5 20.3785V20.5856H3ZM17.9705 23.0011L18.169 23.4601L17.8163 22.5255L17.9705 23.0011ZM18.1947 23.0443L18.5145 22.66L17.84 23.3967L18.1947 23.0443ZM3.93566 22.4784L3.35355 21.8962L2.64645 22.6034L3.22855 23.1855L3.93566 22.4784ZM8.67588 17.031L3.22855 22.4784L3.93566 23.1855L9.38298 17.7381L8.67588 17.031ZM10.8801 14.9746C10.3132 15.3955 9.63354 16.0734 8.67588 17.031L9.38298 17.7381C10.3646 16.7565 10.9829 16.1438 11.4763 15.7774L10.8801 14.9746ZM12.109 14.5299C11.9743 14.504 11.8056 14.4995 11.5863 14.5732C11.387 14.6402 11.159 14.7675 10.8801 14.9746L11.4763 15.7774C11.7109 15.6032 11.8435 15.5417 11.9051 15.521C11.933 15.5116 11.9416 15.5123 11.9355 15.5126C11.9275 15.513 11.9196 15.5118 11.9199 15.5119L12.109 14.5299ZM13.0849 15.3992C12.9029 15.1033 12.7385 14.9005 12.5783 14.7642C12.4021 14.6144 12.2438 14.5559 12.109 14.5299L11.9199 15.5119C11.9203 15.5119 11.9124 15.5101 11.9052 15.5068C11.8997 15.5042 11.9079 15.5068 11.9303 15.5259C11.9798 15.568 12.0801 15.6743 12.2332 15.9232L13.0849 15.3992ZM14.3678 18.1272C13.8343 16.8824 13.4549 16.0006 13.0849 15.3992L12.2332 15.9232C12.5552 16.4466 12.9018 17.2451 13.4486 18.5211L14.3678 18.1272ZM16.1268 22.2315L14.3678 18.1272L13.4486 18.5211L15.2076 22.6255L16.1268 22.2315ZM16.1536 22.2941L16.1268 22.2316L15.2076 22.6254L15.2344 22.6879L16.1536 22.2941ZM16.8187 23.6931C16.6062 23.3476 16.399 22.867 16.1536 22.2941L15.2344 22.6879C15.4696 23.237 15.7074 23.7952 15.967 24.2171L16.8187 23.6931ZM17.8037 24.4712C17.3412 24.3821 17.0458 24.0622 16.8187 23.6931L15.967 24.2171C16.2512 24.6789 16.7444 25.2856 17.6145 25.4532L17.8037 24.4712ZM19.0071 24.1145C18.6592 24.3729 18.2662 24.5603 17.8037 24.4712L17.6145 25.4532C18.4847 25.6207 19.168 25.2407 19.6033 24.9174L19.0071 24.1145ZM20.1443 23.0626C19.7036 23.5034 19.3328 23.8727 19.0071 24.1145L19.6033 24.9174C20.001 24.622 20.4291 24.1921 20.8515 23.7696L20.1443 23.0626ZM20.1924 23.0145L20.1443 23.0626L20.8515 23.7696L20.8995 23.7216L20.1924 23.0145ZM22.2751 20.9318L20.1924 23.0145L20.8995 23.7216L22.9822 21.6389L22.2751 20.9318ZM23.8284 19.4757C23.4244 19.784 22.9514 20.2555 22.2751 20.9318L22.9822 21.6389C23.6793 20.9418 24.097 20.5286 24.435 20.2708L23.8284 19.4757ZM24.75 19.0782C24.4897 19.0782 24.2216 19.1757 23.8284 19.4757L24.435 20.2708C24.5888 20.1534 24.6785 20.1063 24.7228 20.0879C24.7333 20.0836 24.7406 20.0811 24.7451 20.0797C24.7495 20.0783 24.7516 20.0779 24.7517 20.0779C24.7517 20.0779 24.7509 20.0781 24.7496 20.0782C24.7484 20.0783 24.7482 20.0782 24.75 20.0782V19.0782ZM25.6716 19.4757C25.2784 19.1757 25.0103 19.0782 24.75 19.0782V20.0782C24.7518 20.0782 24.7516 20.0783 24.7504 20.0782C24.7491 20.0781 24.7483 20.0779 24.7483 20.0779C24.7484 20.0779 24.7505 20.0783 24.7549 20.0797C24.7594 20.0811 24.7667 20.0836 24.7772 20.0879C24.8215 20.1063 24.9112 20.1534 25.065 20.2708L25.6716 19.4757ZM27.2249 20.9318C26.5486 20.2555 26.0756 19.784 25.6716 19.4757L25.065 20.2708C25.403 20.5286 25.8207 20.9418 26.5178 21.6389L27.2249 20.9318ZM31.3964 25.1034L27.2249 20.9318L26.5178 21.6389L30.6893 25.8105L31.3964 25.1034ZM32.1036 23.6891L30.6893 25.1034L31.3964 25.8105L32.8107 24.3962L32.1036 23.6891ZM27.932 20.2247L32.1036 24.3962L32.8107 23.6891L28.6391 19.5176L27.932 20.2247ZM27.8854 20.1781L27.932 20.2247L28.6391 19.5176L28.5925 19.471L27.8854 20.1781ZM27.8818 20.1744L27.8818 20.1744L28.5962 19.4747L28.5961 19.4746L27.8818 20.1744ZM26.2782 18.6807C26.7363 19.0302 27.2501 19.5427 27.8854 20.1781L28.5925 19.471C27.9743 18.8527 27.4079 18.2849 26.8847 17.8857L26.2782 18.6807ZM24.75 18.0782C25.3173 18.0782 25.7965 18.3132 26.2782 18.6807L26.8847 17.8857C26.3147 17.4508 25.6243 17.0782 24.75 17.0782V18.0782ZM23.2218 18.6807C23.7035 18.3132 24.1827 18.0782 24.75 18.0782V17.0782C23.8757 17.0782 23.1853 17.4508 22.6153 17.8857L23.2218 18.6807ZM21.6146 20.1781C22.2499 19.5427 22.7637 19.0302 23.2218 18.6807L22.6153 17.8857C22.0921 18.2849 21.5257 18.8527 20.9074 19.471L21.6146 20.1781ZM21.568 20.2247L21.6146 20.1781L20.9074 19.471L20.8609 19.5176L21.568 20.2247ZM19.4853 22.3074L21.568 20.2247L20.8609 19.5176L18.7782 21.6003L19.4853 22.3074ZM18.4109 23.3117C18.6762 23.1147 19.0012 22.7915 19.4853 22.3074L18.7782 21.6003C18.2693 22.1091 18.0062 22.3666 17.8147 22.5088L18.4109 23.3117ZM18.3996 23.32L18.4096 23.3127L17.8161 22.5079L17.8061 22.5152L18.3996 23.32ZM17.6713 23.1705L17.6778 23.181L18.5278 22.6543L18.5213 22.6437L17.6713 23.1705ZM17.0459 21.8376C17.3156 22.4668 17.4973 22.8877 17.6705 23.1691L18.5222 22.6451C18.3972 22.4419 18.2485 22.1051 17.9651 21.4437L17.0459 21.8376ZM15.2869 17.7333L17.0459 21.8376L17.9651 21.4437L16.206 17.3394L15.2869 17.7333ZM15.2555 17.6599L15.2869 17.7333L16.2061 17.3394L16.1746 17.266L15.2555 17.6599ZM13.9367 14.8752C14.3457 15.54 14.7494 16.4789 15.2555 17.6599L16.1746 17.266C15.68 16.1117 15.2448 15.093 14.7884 14.3512L13.9367 14.8752ZM12.2981 13.548C13.0215 13.6873 13.5129 14.1865 13.9367 14.8752L14.7884 14.3512C14.307 13.5688 13.6176 12.7837 12.4873 12.566L12.2981 13.548ZM10.2839 14.1717C10.9331 13.6896 11.5748 13.4087 12.2981 13.548L12.4873 12.566C11.3569 12.3483 10.4252 12.8213 9.68772 13.3689L10.2839 14.1717ZM8.02522 16.2675C8.93371 15.3589 9.65726 14.6371 10.2839 14.1717L9.68772 13.3689C8.98841 13.8882 8.20602 14.6724 7.31809 15.5604L8.02522 16.2675ZM7.96878 16.3239L8.02522 16.2675L7.31809 15.5604L7.26165 15.6168L7.96878 16.3239ZM3.35355 20.9391L7.96877 16.3239L7.26166 15.6168L2.64645 20.232L3.35355 20.9391ZM2.5 20.5856V22.2498H3.5V20.5856H2.5ZM18.4404 23.1609C18.4204 23.2209 18.3931 23.2648 18.375 23.2906C18.3559 23.3177 18.3375 23.338 18.3246 23.3513C18.2995 23.3772 18.2769 23.3947 18.2654 23.4033C18.2417 23.421 18.2217 23.4326 18.2141 23.4369C18.1965 23.447 18.1822 23.4537 18.1772 23.456C18.1648 23.4618 18.1548 23.4658 18.1503 23.4676C18.1396 23.4718 18.1308 23.4748 18.1247 23.4768L17.8163 22.5255C17.8073 22.5284 17.7963 22.5322 17.7841 22.537C17.7789 22.5391 17.7684 22.5433 17.7555 22.5493C17.7504 22.5517 17.7359 22.5585 17.7182 22.5686C17.7106 22.5729 17.6905 22.5846 17.6667 22.6023C17.6552 22.6109 17.6327 22.6285 17.6076 22.6543C17.5915 22.6708 17.5278 22.7364 17.4917 22.8447L18.4404 23.1609ZM17.772 22.5422C17.7762 22.5404 17.7843 22.537 17.7951 22.5331C17.799 22.5316 17.8112 22.5272 17.8275 22.5225C17.8315 22.5213 17.8566 22.5139 17.8894 22.5088C17.8946 22.5079 17.956 22.497 18.0327 22.5073C18.0599 22.511 18.1882 22.5278 18.3046 22.6348C18.3735 22.6983 18.4323 22.7886 18.4557 22.9013C18.4779 23.0085 18.4607 23.1 18.4404 23.1609L17.4917 22.8447C17.4714 22.9056 17.4543 22.9972 17.4765 23.1043C17.4998 23.217 17.5586 23.3074 17.6276 23.3708C17.7439 23.4778 17.8722 23.4947 17.8994 23.4984C17.9762 23.5087 18.0376 23.4977 18.0429 23.4969C18.0758 23.4918 18.101 23.4843 18.1052 23.4831C18.1218 23.4783 18.1346 23.4737 18.1392 23.472C18.1515 23.4675 18.1618 23.4632 18.169 23.4601L17.772 22.5422ZM17.8749 23.4287C17.87 23.4246 17.863 23.4186 17.8547 23.4108C17.8512 23.4075 17.8435 23.4002 17.8342 23.3903C17.8305 23.3863 17.82 23.3752 17.8078 23.3599C17.8024 23.3532 17.789 23.3362 17.7744 23.3128C17.7672 23.3013 17.7539 23.2792 17.7409 23.2496C17.732 23.2295 17.7011 23.1586 17.6984 23.0613L18.698 23.0338C18.6953 22.9365 18.6644 22.8656 18.6555 22.8454C18.6424 22.8158 18.6292 22.7937 18.622 22.7822C18.6073 22.7587 18.5939 22.7417 18.5885 22.735C18.5762 22.7196 18.5656 22.7083 18.5617 22.7042C18.5521 22.694 18.544 22.6863 18.5399 22.6824C18.5305 22.6735 18.5217 22.666 18.5145 22.66L17.8749 23.4287ZM17.6984 23.0613C17.6951 22.9423 17.7414 22.7231 17.965 22.6053C18.1263 22.5202 18.2742 22.5524 18.304 22.5589C18.3879 22.577 18.447 22.6139 18.4501 22.6157C18.4801 22.6331 18.5016 22.6501 18.5047 22.6525C18.5183 22.6631 18.5282 22.6719 18.5312 22.6747C18.5399 22.6824 18.5462 22.6887 18.5494 22.6919L17.84 23.3967C17.8456 23.4023 17.8536 23.4102 17.8634 23.419C17.8671 23.4223 17.8774 23.4315 17.8913 23.4423C17.8945 23.4448 17.9161 23.4618 17.9461 23.4794C17.9493 23.4812 18.0085 23.518 18.0924 23.5362C18.1222 23.5427 18.2701 23.5749 18.4314 23.4898C18.655 23.3719 18.7013 23.1527 18.698 23.0338L17.6984 23.0613Z" fill="#1B2559"/>
<circle cx="25.625" cy="9.875" r="2.625" fill="#1B2559"/>
</svg>
