<svg width="66" height="66" viewBox="0 0 66 66" fill="none" xmlns="http://www.w3.org/2000/svg">
<circle cx="33" cy="33" r="33" fill="#CB416D" fill-opacity="0.19"/>
<g clip-path="url(#clip0)">
<path d="M22.481 16.7537C21.3769 17.1831 20.4431 17.7556 19.5094 18.6893C18.5756 19.6163 18.0031 20.5569 17.5737 21.6542C17.1579 22.7174 16.8785 23.9375 16.7967 25.7232C16.7149 27.5089 16.6945 28.0814 16.6945 32.6343C16.6945 37.1872 16.7149 37.7598 16.7967 39.5455C16.8785 41.3312 17.1647 42.5512 17.5737 43.6145C18.0031 44.7186 18.5756 45.6524 19.5094 46.5861C20.4431 47.5199 21.3769 48.0924 22.481 48.5218C23.5443 48.9376 24.7643 49.217 26.55 49.2988C28.3357 49.3806 28.9083 49.401 33.4612 49.401C38.0141 49.401 38.5866 49.3806 40.3723 49.2988C42.158 49.217 43.378 48.9308 44.4413 48.5218C45.5455 48.0924 46.4792 47.5199 47.413 46.5861C48.3467 45.6524 48.9192 44.7186 49.3486 43.6145C49.7644 42.5512 50.0438 41.3312 50.1256 39.5455C50.2074 37.7598 50.2279 37.1872 50.2279 32.6343C50.2279 28.0814 50.2074 27.5089 50.1256 25.7232C50.0438 23.9375 49.7576 22.7174 49.3486 21.6542C48.9192 20.5569 48.3467 19.6163 47.4198 18.6893C46.486 17.7556 45.5523 17.1831 44.4481 16.7537C43.3849 16.3379 42.1649 16.0585 40.3791 15.9767C38.5934 15.8949 38.0209 15.8745 33.468 15.8745C28.9151 15.8745 28.3425 15.8949 26.5568 15.9767C24.7643 16.0517 23.5443 16.3379 22.481 16.7537ZM40.236 18.9892C41.8718 19.0642 42.7578 19.3368 43.3508 19.5686C44.1346 19.8753 44.6935 20.2365 45.2796 20.8227C45.8658 21.4088 46.227 21.9677 46.5337 22.7515C46.7655 23.3445 47.0381 24.2305 47.1131 25.8663C47.1949 27.6316 47.2085 28.1632 47.2085 32.6412C47.2085 37.1191 47.188 37.6507 47.1131 39.416C47.0381 41.0518 46.7655 41.9378 46.5337 42.5308C46.227 43.3146 45.8658 43.8735 45.2796 44.4596C44.6935 45.0458 44.1346 45.407 43.3508 45.7137C42.7578 45.9455 41.8718 46.2181 40.236 46.2931C38.4707 46.3749 37.9391 46.3885 33.4612 46.3885C28.9832 46.3885 28.4516 46.368 26.6863 46.2931C25.0505 46.2181 24.1645 45.9455 23.5715 45.7137C22.7877 45.407 22.2288 45.0458 21.6427 44.4596C21.0565 43.8735 20.6953 43.3146 20.3886 42.5308C20.1569 41.9378 19.8842 41.0518 19.8092 39.416C19.7275 37.6507 19.7138 37.1191 19.7138 32.6412C19.7138 28.1632 19.7343 27.6316 19.8092 25.8663C19.8842 24.2305 20.1569 23.3445 20.3886 22.7515C20.6953 21.9677 21.0565 21.4088 21.6427 20.8227C22.2288 20.2365 22.7877 19.8753 23.5715 19.5686C24.1645 19.3368 25.0505 19.0642 26.6863 18.9892C28.4516 18.9075 28.9832 18.8938 33.4612 18.8938C37.9391 18.8938 38.4707 18.9075 40.236 18.9892Z" fill="url(#paint0_radial)"/>
<path d="M24.8529 32.6412C24.8529 37.3985 28.7106 41.2494 33.4612 41.2494C38.2117 41.2494 42.0694 37.3917 42.0694 32.6412C42.0694 27.8906 38.2186 24.0329 33.4612 24.0329C28.7038 24.0329 24.8529 27.8838 24.8529 32.6412ZM39.0501 32.6412C39.0501 35.7287 36.5487 38.2301 33.4612 38.2301C30.3737 38.2301 27.8723 35.7287 27.8723 32.6412C27.8723 29.5536 30.3737 27.0523 33.4612 27.0523C36.5487 27.0523 39.0501 29.5536 39.0501 32.6412Z" fill="url(#paint1_radial)"/>
<path d="M42.417 25.7027C43.5275 25.7027 44.4277 24.8025 44.4277 23.6921C44.4277 22.5817 43.5275 21.6815 42.417 21.6815C41.3066 21.6815 40.4064 22.5817 40.4064 23.6921C40.4064 24.8025 41.3066 25.7027 42.417 25.7027Z" fill="#654C9F"/>
</g>
<defs>
<radialGradient id="paint0_radial" cx="0" cy="0" r="1" gradientUnits="userSpaceOnUse" gradientTransform="translate(17.3046 46.3315) rotate(-3.00009) scale(48.4813 41.2086)">
<stop stop-color="#FED576"/>
<stop offset="0.2634" stop-color="#F47133"/>
<stop offset="0.6091" stop-color="#BC3081"/>
<stop offset="1" stop-color="#4C63D2"/>
</radialGradient>
<radialGradient id="paint1_radial" cx="0" cy="0" r="1" gradientUnits="userSpaceOnUse" gradientTransform="translate(25.1652 39.6707) rotate(-3.00009) scale(24.8958 21.1612)">
<stop stop-color="#FED576"/>
<stop offset="0.2634" stop-color="#F47133"/>
<stop offset="0.6091" stop-color="#BC3081"/>
<stop offset="1" stop-color="#4C63D2"/>
</radialGradient>
<clipPath id="clip0">
<rect width="34.8966" height="34.8966" fill="white" transform="translate(15.931 15.1724)"/>
</clipPath>
</defs>
</svg>
