<svg width="66" height="66" viewBox="0 0 66 66" fill="none" xmlns="http://www.w3.org/2000/svg">
<circle cx="33" cy="33" r="33" fill="#1DA1F2" fill-opacity="0.19"/>
<g clip-path="url(#clip0)">
<path d="M27.1832 47.9806C40.9281 47.9806 48.4461 36.5927 48.4461 26.7177C48.4461 26.3944 48.4461 26.0722 48.4242 25.7517C49.8869 24.6938 51.1492 23.3841 52.1524 21.8834C50.7886 22.4877 49.3417 22.8843 47.86 23.0591C49.4202 22.125 50.5878 20.6563 51.1455 18.9258C49.6784 19.7963 48.0737 20.4099 46.4002 20.7397C43.5701 17.7303 38.8362 17.585 35.8267 20.4151C33.8857 22.2404 33.0625 24.9601 33.6647 27.5555C27.6568 27.254 22.0584 24.4161 18.2638 19.7473C16.2803 23.1619 17.2933 27.5304 20.5775 29.7231C19.3881 29.6879 18.2249 29.367 17.1856 28.7878C17.1856 28.8186 17.1856 28.8506 17.1856 28.8825C17.1864 32.44 19.694 35.5036 23.181 36.2083C22.081 36.5081 20.9264 36.5523 19.8065 36.3365C20.7855 39.3808 23.591 41.4663 26.7882 41.5262C24.1418 43.606 20.8729 44.7348 17.5074 44.7315C16.9128 44.7303 16.3191 44.6943 15.7286 44.6235C19.146 46.8166 23.1228 47.9797 27.1832 47.9745" fill="#1DA1F2"/>
</g>
<defs>
<clipPath id="clip0">
<rect width="36.4138" height="36.4138" fill="white" transform="translate(15.931 15.1724)"/>
</clipPath>
</defs>
</svg>
