<svg width="37" height="38" viewBox="0 0 37 38" fill="none" xmlns="http://www.w3.org/2000/svg">
<path d="M34.2111 18.1056L35.1056 16.3167L34.2111 18.1056ZM34.2111 19.8944L35.1056 21.6833L34.2111 19.8944ZM3.73666 2.86833L4.63108 1.07947L3.73666 2.86833ZM4.63108 1.07947L35.1056 16.3167L33.3167 19.8944L2.84223 4.65718L4.63108 1.07947ZM35.1056 21.6833L4.63108 36.9205L2.84222 33.3428L33.3167 18.1056L35.1056 21.6833ZM4 3.94164V34.0584H0V3.94164H4ZM4.63108 36.9205C2.50338 37.9844 0 36.4372 0 34.0584H4C4 33.4637 3.37416 33.0769 2.84222 33.3428L4.63108 36.9205ZM35.1056 16.3167C37.3167 17.4223 37.3167 20.5777 35.1056 21.6833L33.3167 18.1056C32.5797 18.4741 32.5797 19.5259 33.3167 19.8944L35.1056 16.3167ZM2.84223 4.65718C3.37415 4.92314 4 4.53635 4 3.94164H0C0 1.56282 2.5034 0.0156319 4.63108 1.07947L2.84223 4.65718Z" fill="#1B2559"/>
</svg>
