<svg width="52" height="52" viewBox="0 0 52 52" fill="none" xmlns="http://www.w3.org/2000/svg">
<path d="M27.9206 44.3363L26.722 42.8979L27.9206 44.3363L38.4615 35.5522C40.0198 34.2536 41.0267 32.4115 41.2783 30.3987L43.0579 16.1615C43.2238 14.8349 42.4917 13.5586 41.2628 13.0319L27.1818 6.9972C26.4272 6.67378 25.5729 6.67378 24.8183 6.9972L10.7372 13.0319C9.50838 13.5586 8.77633 14.8348 8.94216 16.1615L10.7218 30.3987C10.9734 32.4115 11.9802 34.2536 13.5386 35.5522L24.0795 44.3363C25.192 45.2634 26.8081 45.2634 27.9206 44.3363Z" stroke="#081946" stroke-width="4" stroke-linecap="round"/>
<path d="M19.5 26L25.5687 32.0687C25.7918 32.2918 26.1633 32.2551 26.3383 31.9925L34.6666 19.5" stroke="#081946" stroke-width="4" stroke-linecap="round"/>
</svg>
